# xmcd
#
# Track frame offsets:
#	150
#	13495
#	25487
#	35060
#	47155
#	60215
#	74247
#	90767
#	101202
#	118460
#	131262
#	143297
#	153910
#	166192
#	182337
#	196167
#	211747
#	220382
#	235505
#	246962
#
# Disc length: 3462 seconds
#
# Revision: 1
# Processed by: cddbd v1.5.2PL0 Copyright (c) Steve Scherf et al.
# Submitted via: audiograbber 1.83.01
#
DISCID=130d8414
DTITLE=Various Artist - THE UNFORGETTABLE HITS  CD 5
DYEAR=1900
DGENRE=Country
TTITLE0=LEE GREENWOOD - HEARTS AREN'T MADE TO BREAK (THEY'RE MADE TO LOVE)
TTITLE1=DONNA FARGO - FUNNY FACE
TTITLE2=TOM T HALL - I LOVE
TTITLE3=CONNIE FRANCIS - HEARTBEAT
TTITLE4=BJ THOMAS - RAINDROPS KEEP FALLING ON MY HEAD
TTITLE5=SANDIE SHAW - WORDS
TTITLE6=THE OAK RIDGE BOYS - ELVIRA
TTITLE7=PATSY CLINE - I LOVE YOU HONEY
TTITLE8=KENNY ROGERS - LADY
TTITLE9=BARBARA MANDRELL - 'TIL YOU'RE GONE
TTITLE10=TOMMY OVERSTREET - HEAVEN IS MY WOMAN'S LOVE
TTITLE11=THE STATLER BROTHERS - FLOWERS ON THE WALL
TTITLE12=PATSY CLINE - CRAZY
TTITLE13=TOM JONES - SAY YOU'LL STAY UNTIL TOMORROW
TTITLE14=BARBARA MANDRELL - IF LOVING YOU IS WRONG (I DON'T WANT TO BE RIGHT)
TTITLE15=THE OAK RIDGE BROTHERS - SAIL AWAY
TTITLE16=ROGER MILLER - ENGLAND SWING
TTITLE17=KATHY MATTEA - EIGHTEEN WHEELS AND DOZEN ROSES
TTITLE18=JOHNNY CASH - A THING CALLED LOVE
TTITLE19=CONWAY TWITTY - LORETTA LYNN - I CAN'T LOVE YOU ENOUGH
EXTD=
EXTT0=
EXTT1=
EXTT2=
EXTT3=
EXTT4=
EXTT5=
EXTT6=
EXTT7=
EXTT8=
EXTT9=
EXTT10=
EXTT11=
EXTT12=
EXTT13=
EXTT14=
EXTT15=
EXTT16=
EXTT17=
EXTT18=
EXTT19=
PLAYORDER=
